<svg xmlns="http://www.w3.org/2000/svg" height="20" width="20"><path d="m10 18-1-3H3.5q-.625-.021-1.062-.448Q2 14.125 2 13.5v-10q0-.604.438-1.052Q2.875 2 3.5 2H8l1 3h7.5q.604 0 1.052.448Q18 5.896 18 6.5v10q0 .625-.448 1.062Q17.104 18 16.5 18Zm-3.938-6q1.188 0 2.032-.771.844-.771.844-2.167 0-.145-.011-.291-.01-.146-.052-.313H6.062v1.021h1.75q-.062.688-.562 1.073-.5.386-1.188.386-.791 0-1.343-.563Q4.167 9.812 4.167 9q0-.792.552-1.365t1.343-.573q.334 0 .646.126.313.124.563.354l.791-.771q-.416-.396-.937-.583Q6.604 6 6.062 6q-1.25 0-2.124.875Q3.062 7.75 3.062 9t.876 2.125Q4.812 12 6.062 12Zm5.292.708.396-.396q-.292-.312-.521-.656-.229-.344-.437-.718Zm.979-1.02q.417-.5.771-1.053.354-.552.521-1.218h-3.313l.292.875.813-.021q.187.396.406.75.219.354.51.667ZM11 17h5.5q.208 0 .354-.135.146-.136.146-.365v-10q0-.208-.146-.354T16.5 6H9.25l.792 2.562h1.666v-.854h.834v.854h3.02v.855H14.5q-.208.833-.625 1.552-.417.719-.958 1.343l2.25 2.209-.605.604-2.208-2.208-.729.708.75 2.375Z"/></svg>